<svg width="1920" height="417" viewBox="0 0 1920 417" fill="none" xmlns="http://www.w3.org/2000/svg">
<g filter="url(#filter0_d)">
<path d="M521 178C299 118 -0.166656 248.667 -122 321.5L-184 240L-243 -171.5H-63L2215 -204V391.122C2217.73 398.334 2217.21 403.443 2215 406.5V391.122C2207.01 370.025 2171.14 330.926 2068 272.5C1895 174.5 1464.5 253 1285 370.5C1105.5 488 798.5 253 521 178Z" fill="white"/>
<path d="M-122 321.5C-0.166664 248.667 299 118 521 178C798.5 253 1105.5 488 1285 370.5C1464.5 253 1895 174.5 2068 272.5C2206.4 350.9 2223.67 394.5 2215 406.5V-204L-63 -171.5H-243L-184 240L-122 321.5Z" stroke="black"/>
</g>
<defs>
<filter id="filter0_d" x="-247.577" y="-204.507" width="2468.93" height="620.553" filterUnits="userSpaceOnUse" color-interpolation-filters="sRGB">
<feFlood flood-opacity="0" result="BackgroundImageFix"/>
<feColorMatrix in="SourceAlpha" type="matrix" values="0 0 0 0 0 0 0 0 0 0 0 0 0 0 0 0 0 0 127 0"/>
<feOffset dy="4"/>
<feGaussianBlur stdDeviation="2"/>
<feColorMatrix type="matrix" values="0 0 0 0 0 0 0 0 0 0 0 0 0 0 0 0 0 0 0.25 0"/>
<feBlend mode="normal" in2="BackgroundImageFix" result="effect1_dropShadow"/>
<feBlend mode="normal" in="SourceGraphic" in2="effect1_dropShadow" result="shape"/>
</filter>
</defs>
</svg>
